<?xml version="1.0"?>
<svg xmlns:rdf="http://www.w3.org/1999/02/22-rdf-syntax-ns#" xmlns="http://www.w3.org/2000/svg" xmlns:sodipodi="http://inkscape.sourceforge.net/DTD/sodipodi-0.dtd" xmlns:cc="http://web.resource.org/cc/" xmlns:xlink="http://www.w3.org/1999/xlink" xmlns:dc="http://purl.org/dc/elements/1.1/" xmlns:svg="http://www.w3.org/2000/svg" id="svg1291" sodipodi:version="0.32" height="480" width="400pt" version="1.0" sodipodi:docname="sun-0.1.svg" sodipodi:docbase="/home/marco/svg/2005">
  <sodipodi:namedview id="base" bordercolor="#666666" borderopacity="1.0" showgrid="false" pagecolor="#ffffff"/>
  <g id="layer1">
    <g id="g3777" transform="translate(-29.984)">
      <path id="path1315" stroke-linejoin="round" d="m267.61 121.75c-60.11 14.5-110.79 59.33-121.56 117.83-12.82 69.6 38.05 137.62 116.12 145.29 67.95 6.68 136.85-37.62 146.02-101.32 7.67-53.32-32.75-105.49-93.82-108.07-47.64-2.01-96.9 31.24-97.08 77.44-0.06 15.11 7.1 30.93 19.16 42.04 12.05 11.1 30.36 17.21 49.63 10.05 3.69-1.37 5.58-5.15 4.23-8.43s-5.44-4.83-9.12-3.45c-13.75 5.11-25.06 1.19-34.4-7.41s-15.33-22.12-15.29-33.35c0.15-37.85 41.61-65.75 81.59-64.06 52.48 2.22 87.68 47.73 81.01 94.13-8.08 56.12-69.42 95.6-129.78 89.66-69.89-6.86-115.81-68.3-104.27-130.97 13-70.63 90.79-119.62 167.19-110.41 18.47 2.22 36.3 7.67 52.32 15.88 3.35 1.72 7.73 0.58 9.78-2.54s0.99-7.04-2.36-8.76c-17.52-8.98-37.01-14.89-57.25-17.33-21.01-2.53-42.09-1.05-62.12 3.78z" fill-rule="evenodd" stroke="#080801" stroke-linecap="round" stroke-width="2.5" fill="#f0dc11"/>
      <path id="path2088" stroke-linejoin="round" d="m493.62 137.41c-0.94 0.03-1.86 0.29-2.68 0.75l-68.78 36.78c-1.97 0.96-3.25 2.91-3.35 5.1-0.1 2.18 1 4.24 2.87 5.38 1.87 1.13 4.21 1.15 6.1 0.05l68.78-36.78c2.49-1.28 3.75-4.11 3.05-6.82-0.71-2.7-3.19-4.56-5.99-4.46z" fill-rule="evenodd" stroke="#000" stroke-linecap="round" stroke-width="2.5" fill="#f3df12"/>
      <use id="use2100" xlink:href="#path2088" transform="matrix(.48337 -.87541 .87541 .48337 -83.627 378.18)" height="480" width="640" y="0" x="0"/>
      <use id="use2102" xlink:href="#path2088" transform="matrix(-.53439 -.84524 .84524 -.53439 208.85 632.35)" height="480" width="640" y="0" x="0"/>
      <use id="use2104" xlink:href="#path2088" transform="matrix(-.95985 .28052 -.28052 -.95985 621.45 430.93)" height="480" width="640" y="0" x="0"/>
      <use id="use2106" xlink:href="#path2088" transform="matrix(.13908 .99028 -.99028 .13908 497.09 -54.488)" height="480" width="640" y="0" x="0"/>
    </g>
  </g>
  <metadata>
    <rdf:RDF>
      <cc:Work>
        <dc:format>image/svg+xml</dc:format>
        <dc:type rdf:resource="http://purl.org/dc/dcmitype/StillImage"/>
        <cc:license rdf:resource="http://creativecommons.org/licenses/publicdomain/"/>
        <dc:publisher>
          <cc:Agent rdf:about="http://openclipart.org/">
            <dc:title>Openclipart</dc:title>
          </cc:Agent>
        </dc:publisher>
        <dc:title>sun</dc:title>
        <dc:date>2007-09-26T19:41:03</dc:date>
        <dc:description>astronomy, astronomy, clip art, clipart, icon, icon, image, media, nature, nature, png, public domain, sketch, sketch, sun, sun, svg, weather, weather, </dc:description>
        <dc:source>http://openclipart.org/detail/6167/sun-by-mcol</dc:source>
        <dc:creator>
          <cc:Agent>
            <dc:title>mcol</dc:title>
          </cc:Agent>
        </dc:creator>
        <dc:subject>
          <rdf:Bag>
            <rdf:li>astronomy</rdf:li>
            <rdf:li>clip art</rdf:li>
            <rdf:li>clipart</rdf:li>
            <rdf:li>icon</rdf:li>
            <rdf:li>image</rdf:li>
            <rdf:li>media</rdf:li>
            <rdf:li>nature</rdf:li>
            <rdf:li>png</rdf:li>
            <rdf:li>public domain</rdf:li>
            <rdf:li>sketch</rdf:li>
            <rdf:li>sun</rdf:li>
            <rdf:li>svg</rdf:li>
            <rdf:li>weather</rdf:li>
          </rdf:Bag>
        </dc:subject>
      </cc:Work>
      <cc:License rdf:about="http://creativecommons.org/licenses/publicdomain/">
        <cc:permits rdf:resource="http://creativecommons.org/ns#Reproduction"/>
        <cc:permits rdf:resource="http://creativecommons.org/ns#Distribution"/>
        <cc:permits rdf:resource="http://creativecommons.org/ns#DerivativeWorks"/>
      </cc:License>
    </rdf:RDF>
  </metadata>
</svg>
